HIERARCHY
ROOT Bip001_Pelvis
{
  OFFSET 33.2923 95.8902 -28.781
  CHANNELS 6 Xposition Yposition Zposition Zrotation Xrotation Yrotation
  JOINT Bip001_Spine
  {
    OFFSET 1.4188e-005 10.2191 -0.0116013
    CHANNELS 3 Zrotation Xrotation Yrotation
    JOINT Bip001_L_Thigh
    {
      OFFSET 11.0458 -10.2192 0.0116197
      CHANNELS 3 Zrotation Xrotation Yrotation
      JOINT Bip001_L_Calf
      {
        OFFSET -0.707118 -44.0221 0.360014
        CHANNELS 3 Zrotation Xrotation Yrotation
        JOINT Bip001_L_Foot
        {
          OFFSET -0.651902 -40.5938 -3.56146
          CHANNELS 3 Zrotation Xrotation Yrotation
          JOINT Bip001_L_Toe0
          {
            OFFSET 0.0530839 -10.2181 13.1504
            CHANNELS 3 Zrotation Xrotation Yrotation
            End Site
            {
              OFFSET -1.02532e-005 0 7.55606
            }
          }
        }
      }
    }
    JOINT Bip001_R_Thigh
    {
      OFFSET -11.0458 -10.2191 0.0115893
      CHANNELS 3 Zrotation Xrotation Yrotation
      JOINT Bip001_R_Calf
      {
        OFFSET 0.706994 -44.0221 0.35984
        CHANNELS 3 Zrotation Xrotation Yrotation
        JOINT Bip001_R_Foot
        {
          OFFSET 0.651786 -40.5938 -3.5613
          CHANNELS 3 Zrotation Xrotation Yrotation
          JOINT Bip001_R_Toe0
          {
            OFFSET -0.0531479 -10.2181 13.1504
            CHANNELS 3 Zrotation Xrotation Yrotation
            End Site
            {
              OFFSET -1.02894e-005 0 7.55606
            }
          }
        }
      }
    }
    JOINT Bip001_Spine1
    {
      OFFSET 1.87041e-005 14.5736 1.08638
      CHANNELS 3 Zrotation Xrotation Yrotation
      JOINT Bip001_Spine2
      {
        OFFSET 2.24614e-005 14.5058 -1.69078
        CHANNELS 3 Zrotation Xrotation Yrotation
        JOINT Bip001_Neck
        {
          OFFSET 2.20278e-005 15.3945 -0.489414
          CHANNELS 3 Zrotation Xrotation Yrotation
          JOINT Bip001_L_Clavicle
          {
            OFFSET 6.06036 -0.000579998 0.00836775
            CHANNELS 3 Zrotation Xrotation Yrotation
            JOINT Bip001_L_UpperArm
            {
              OFFSET 11.5509 -0.0600302 0.00193952
              CHANNELS 3 Zrotation Xrotation Yrotation
              JOINT Bip001_L_Forearm
              {
                OFFSET 25.9523 0.0806089 -2.15551
                CHANNELS 3 Zrotation Xrotation Yrotation
                JOINT Bip001_L_Hand
                {
                  OFFSET 32.2476 0.153767 1.63968
                  CHANNELS 3 Zrotation Xrotation Yrotation
                  JOINT Bip001_L_Finger0
                  {
                    OFFSET 6.04639 -2.20976 5.90322
                    CHANNELS 3 Zrotation Xrotation Yrotation
                    End Site
                    {
                      OFFSET 4.22376 -1.43895 0.606486
                    }
                  }
                  JOINT Bip001_L_Finger1
                  {
                    OFFSET 11.0826 -0.704819 -0.198153
                    CHANNELS 3 Zrotation Xrotation Yrotation
                    End Site
                    {
                      OFFSET 6.20028 -0.397518 -0.0787166
                    }
                  }
                }
              }
            }
          }
          JOINT Bip001_R_Clavicle
          {
            OFFSET -6.06036 -0.000563197 0.00835105
            CHANNELS 3 Zrotation Xrotation Yrotation
            JOINT Bip001_R_UpperArm
            {
              OFFSET -11.5509 -0.0599978 0.00190698
              CHANNELS 3 Zrotation Xrotation Yrotation
              JOINT Bip001_R_Forearm
              {
                OFFSET -25.9523 0.080682 -2.1559
                CHANNELS 3 Zrotation Xrotation Yrotation
                JOINT Bip001_R_Hand
                {
                  OFFSET -32.2476 0.153858 1.63991
                  CHANNELS 3 Zrotation Xrotation Yrotation
                  JOINT Bip001_R_Finger0
                  {
                    OFFSET -6.04641 -2.20974 5.90321
                    CHANNELS 3 Zrotation Xrotation Yrotation
                    End Site
                    {
                      OFFSET -4.22376 -1.43894 0.606474
                    }
                  }
                  JOINT Bip001_R_Finger1
                  {
                    OFFSET -11.0826 -0.704789 -0.198184
                    CHANNELS 3 Zrotation Xrotation Yrotation
                    End Site
                    {
                      OFFSET -6.20028 -0.397501 -0.0787338
                    }
                  }
                }
              }
            }
          }
          JOINT Bip001_Head
          {
            OFFSET 1.09673e-005 11.2744 2.05948
            CHANNELS 3 Zrotation Xrotation Yrotation
            End Site
            {
              OFFSET 2.89576e-005 20.8808 -2.77728e-005
            }
          }
        }
      }
    }
  }
}
MOTION
Frames:	6
Frame Time:	0.04
31.9916 95.9165 -29.0356 1.35831 -1.70056 3.44731 -0.267912 3.18076 0.283486 4.8137 -3.08804 7.77086 -0.558316 6.49406 -14.6973 3.21538 -1.69425 -0.10914 -3.39324 -3.72072 5.14453 -3.26325 -3.15303 -0.841265 0.261966 11.2961 -0.427645 -6.19811 -9.97068 -0.125518 1.97995 -7.0611 2.45643 -0.558472 6.36056 0.583409 -0.558474 6.36078 0.58342 2.69948 1.92987 -4.84402 -25.6857 -0.627599 -3.90362 -48.8669 39.5414 -2.83724 11.8225 -0.76801 -26.0976 8.62091 1.18944 -2.08458 6.36111e-015 -6.36111e-015 -3.18055e-015 6.36111e-015 -1.27222e-014 -1.59028e-015 26.0609 5.75577 16.7911 42.337 3.17358 -3.58102 -33.3652 -6.6545 86.1404 -32.0043 5.52592 7.97382 -2.75869e-032 1.98785e-015 7.95139e-016 1.59028e-015 -3.57813e-015 -0 -3.69444 14.7642 -2.56673 
31.9583 95.9111 -29.1433 1.28912 -1.69433 3.52374 -0.269282 3.17636 0.296734 4.86841 -3.23342 7.70686 -0.544764 6.56658 -14.9024 3.66206 -1.33094 -0.139224 -3.27531 -4.11377 5.05004 -3.18154 -3.22004 -0.884081 0.266384 11.2956 -0.429962 -6.17986 -9.9235 -0.159609 1.97575 -7.06188 2.48112 -0.559878 6.35187 0.612036 -0.55949 6.35238 0.61213 2.50161 1.82961 -4.82502 -25.4501 -0.517772 -3.86182 -48.7752 39.4887 -2.976 11.7768 -0.709402 -26.0931 8.80368 1.21963 -2.06361 8.82781e-032 -3.18055e-015 1.59028e-015 -3.18055e-015 3.18056e-015 -0 25.4056 6.18549 18.2397 41.7169 0.643974 2.54551 -34.1805 -6.28985 89.4022 -37.4032 5.0496 8.2668 6.36111e-015 -1.11319e-014 -7.95139e-015 3.18055e-015 -1.19271e-014 -6.36111e-015 -3.59241 14.7871 -2.64588 
31.9227 95.9158 -29.3065 1.15244 -1.59306 3.87413 -0.236515 3.16074 0.279006 5.04905 -3.67196 6.94139 -0.604272 6.92451 -14.3306 3.12789 -1.79129 -0.103659 -3.45219 -3.75121 5.25224 -3.06928 -3.28551 -1.14851 0.279409 11.1402 -0.428214 -6.18016 -9.80222 -0.197208 1.96885 -7.02056 2.4504 -0.489644 6.32029 0.572191 -0.489624 6.32029 0.572307 2.24953 1.83616 -4.88589 -25.1936 -0.514838 -3.86121 -48.6063 39.4632 -3.26877 11.9368 -0.468091 -25.9103 8.32016 0.861073 -2.19888 -6.36111e-015 0 3.18055e-015 -6.36111e-015 -3.18056e-015 3.18055e-015 24.2741 6.48623 20.0816 41.2408 -1.16529 9.2743 -35.178 -6.29486 91.0416 -43.3685 4.38523 8.11444 3.18055e-015 4.77083e-015 -0 -3.18055e-015 1.59028e-015 3.18055e-015 -3.50642 14.7355 -2.8118 
31.7269 95.9114 -29.5448 0.572768 -1.20189 4.32407 -0.111176 3.08145 0.262585 5.73186 -4.72344 6.166 -0.916856 7.83785 -14.0496 3.76273 -1.62702 -0.131012 -3.32069 -4.07985 5.12041 -2.42454 -3.44434 -0.891516 0.236954 10.5092 -0.477919 -6.32154 -9.28909 -0.751722 1.96719 -7.01048 2.44844 -0.23772 6.16228 0.536126 -0.236649 6.1623 0.534137 2.15473 1.75173 -4.982 -25.2043 -0.481126 -3.70308 -48.2795 39.6822 -3.54932 11.8365 -0.692705 -25.8702 8.44464 0.945461 -2.1633 3.18055e-015 -6.36111e-015 -0 -0 -3.18056e-015 -0 22.3056 6.71421 22.1737 41.8785 -2.88752 16.364 -37.7021 -5.10585 91.094 -51.5574 4.6629 7.20822 -3.18055e-015 -3.18055e-015 -0 -3.18055e-015 0 -3.18055e-015 -3.63166 14.8648 -2.88599 
31.6683 95.9146 -29.5924 0.516697 -1.33781 4.34024 -0.0924523 3.10044 0.37046 5.85388 -4.65659 6.35681 -0.967053 7.85664 -14.3702 3.72741 -1.64285 -0.128823 -3.31528 -4.05959 5.10377 -2.31097 -3.31421 -0.808812 0.205225 10.4131 -0.494269 -6.33562 -9.19999 -0.898387 1.96506 -6.9817 2.44726 -0.208814 6.2003 0.746995 -0.206229 6.20027 0.74742 2.11777 1.92539 -5.10138 -25.2854 -0.680265 -3.6788 -47.9253 39.6783 -3.78407 11.8245 -0.599253 -25.8805 8.77717 0.978077 -2.11895 3.18055e-015 -6.36111e-015 -0 -0 -6.36111e-015 -0 19.9604 6.40856 24.052 42.8788 -3.24602 23.7156 -40.4193 -4.50035 88.012 -58.2576 3.95689 6.83954 0 0 -1.59028e-015 3.53113e-031 3.18056e-015 -6.36111e-015 -3.74567 14.623 -2.97814 
31.5277 95.9249 -29.7197 0.198265 -1.2845 4.70354 -0.0274058 3.08019 0.389217 6.33685 -5.10035 5.83733 -1.24759 8.31964 -14.1253 3.69322 -1.78419 -0.121207 -3.33433 -3.99059 5.10472 -1.89337 -3.17813 -0.640192 0.159941 9.91592 -0.53878 -6.44469 -8.84019 -1.34163 1.96678 -7.00258 2.45964 -0.0758114 6.16016 0.77967 -0.0767788 6.16019 0.78074 2.10415 2.25201 -5.13466 -25.3393 -0.997349 -3.75666 -47.8325 39.166 -3.84337 11.6545 -1.04325 -25.9828 8.18875 0.968605 -2.13444 -3.18055e-015 9.54166e-015 -0 -3.18055e-015 9.54167e-015 -0 17.7848 5.8699 25.7213 40.9737 -0.712644 30.4845 -44.048 -5.15845 80.6857 -61.3827 0.981137 7.1427 4.77083e-015 -3.18055e-015 -0 4.77083e-015 -3.18056e-015 -1.59028e-015 -3.87102 14.3312 -2.9865 
